<?xml version="1.0" encoding="UTF-8"?>
<svg width="15px" height="16px" viewBox="0 0 15 16" version="1.1" xmlns="http://www.w3.org/2000/svg" xmlns:xlink="http://www.w3.org/1999/xlink">
    <title>android</title>
    <g id="Page-1" stroke="none" stroke-width="1" fill="none" fill-rule="evenodd">
        <g id="basic-mode" transform="translate(-28.000000, -710.000000)" fill="#FFFFFF">
            <g id="Group-5" transform="translate(0.000000, 189.000000)">
                <g id="Group-23" transform="translate(9.000000, 515.000000)">
                    <g id="Group-12" transform="translate(0.000000, 5.000000)">
                        <path d="M20.1581723,16.4439166 L26.7639955,9.8569116 L29.0924368,12.1784529 L21.2395927,16.5323622 C20.9410103,16.6979626 20.5753095,16.6954535 20.2786089,16.5254622 L20.1581723,16.4439166 Z M26.0978304,9.19262836 L19.7999988,15.472269 L19.7999988,2.91298767 L26.0978304,9.19262836 Z M30.0333479,6.59759554 L33.1101272,8.30315373 C33.4124733,8.47126318 33.6000282,8.78615476 33.6000282,9.12739186 C33.6000282,9.46862895 33.4124733,9.78352053 33.1101272,9.95162998 L29.9492932,11.7036065 L27.4307878,9.19262836 L30.0333479,6.59759554 Z M20.0885448,1.87171272 C20.1449995,1.81713987 20.2083542,1.76946704 20.2786089,1.7293215 C20.5753095,1.55933023 20.9410103,1.55682113 21.2395927,1.72242149 L29.1764915,6.12274907 L26.7639955,8.52834512 L20.0885448,1.87171272 Z" id="android"></path>
                    </g>
                </g>
            </g>
        </g>
    </g>
</svg>