<?xml version="1.0" encoding="UTF-8"?>
<svg width="13px" height="16px" viewBox="0 0 13 16" version="1.1" xmlns="http://www.w3.org/2000/svg" xmlns:xlink="http://www.w3.org/1999/xlink">
    <title>ios</title>
    <g id="Page-1" stroke="none" stroke-width="1" fill="none" fill-rule="evenodd">
        <g id="basic-mode" transform="translate(-9.000000, -709.000000)" fill="#FFFFFF" fill-rule="nonzero">
            <g id="Group-5" transform="translate(0.000000, 189.000000)">
                <g id="Group-23" transform="translate(9.000000, 515.000000)">
                    <g id="Group-12" transform="translate(0.000000, 5.000000)">
                        <path d="M9.10409138,3.72740682 L9.3419047,3.74008098 C10.4743913,3.7758686 11.5237465,4.34341455 12.1735789,5.27159802 C11.1480316,5.90231282 10.5170089,7.01436988 10.5015427,8.21753277 C10.5028529,9.58003174 11.3188762,10.8096559 12.5738457,11.340181 C12.3321848,12.1239267 11.9681112,12.8645291 11.4951126,13.5345511 C10.8606473,14.4841201 10.1956651,15.4116885 9.13893256,15.4294309 C8.1127168,15.4528507 7.7678061,14.8247726 6.59113546,14.8247726 C5.40240004,14.8247726 5.03477918,15.4116885 4.05043529,15.4528507 C3.04409092,15.4897548 2.27549363,14.4394094 1.61760841,13.4990665 C0.303257375,11.5779281 -0.720829316,8.08552991 0.651716533,5.70947847 C1.29619965,4.55119601 2.50135224,3.81619573 3.82617237,3.77343655 C4.83251674,3.75214576 5.76789183,4.45332223 6.38674394,4.45332223 C6.99424096,4.45332223 8.14962082,3.61517505 9.3419047,3.74008098 Z M9.35396948,-3.50830476e-14 C9.42250345,0.897118906 9.13864113,1.78562069 8.56266202,2.47682782 C8.00374374,3.17166734 7.15707421,3.57185405 6.26538647,3.56265779 C6.20878241,2.691332 6.50085515,1.83324067 7.07727502,1.17738033 C7.66111494,0.512587433 8.47401617,0.0921999167 9.35396948,-3.50830476e-14 Z" id="ios"></path>
                    </g>
                </g>
            </g>
        </g>
    </g>
</svg>