<?xml version="1.0" encoding="UTF-8"?>
<svg width="30px" height="30px" viewBox="0 0 30 30" version="1.1" xmlns="http://www.w3.org/2000/svg" xmlns:xlink="http://www.w3.org/1999/xlink">
    <title>tt-comment</title>
    <defs>
        <path d="M256.901333,394.261406 C262.668772,394.261406 270.059859,398.201212 270.059859,405.950878 C270.059859,413.700544 259.06933,419.825819 258.066218,419.689312 C257.397476,419.598308 257.066576,419.168884 257.073518,418.401042 L257.073518,418.401042 L257.072842,416.835406 L256.894579,416.829136 C252.030953,416.613937 243.901771,413.928279 243.673744,406.281636 L243.668842,405.950878 C243.668842,397.383095 251.133895,394.261406 256.901333,394.261406 Z M250.464,404.448 C249.418341,404.448 248.570667,405.295674 248.570667,406.341333 C248.570667,407.386992 249.418341,408.234667 250.464,408.234667 C251.509659,408.234667 252.357333,407.386992 252.357333,406.341333 C252.357333,405.295674 251.509659,404.448 250.464,404.448 Z M256.901333,404.448 C255.855674,404.448 255.008,405.295674 255.008,406.341333 C255.008,407.386992 255.855674,408.234667 256.901333,408.234667 C257.946992,408.234667 258.794667,407.386992 258.794667,406.341333 C258.794667,405.295674 257.946992,404.448 256.901333,404.448 Z M263.338667,404.448 C262.293008,404.448 261.445333,405.295674 261.445333,406.341333 C261.445333,407.386992 262.293008,408.234667 263.338667,408.234667 C264.384326,408.234667 265.232,407.386992 265.232,406.341333 C265.232,405.295674 264.384326,404.448 263.338667,404.448 Z" id="path-1"></path>
        <filter x="-13.3%" y="-9.8%" width="126.5%" height="127.5%" filterUnits="objectBoundingBox" id="filter-2">
            <feOffset dx="0" dy="1" in="SourceAlpha" result="shadowOffsetOuter1"></feOffset>
            <feGaussianBlur stdDeviation="1" in="shadowOffsetOuter1" result="shadowBlurOuter1"></feGaussianBlur>
            <feColorMatrix values="0 0 0 0 0   0 0 0 0 0   0 0 0 0 0  0 0 0 0.1 0" type="matrix" in="shadowBlurOuter1"></feColorMatrix>
        </filter>
    </defs>
    <g id="Page-1" stroke="none" stroke-width="1" fill="none" fill-rule="evenodd">
        <g id="basic-mode" transform="translate(-242.000000, -582.000000)">
            <g id="tt-comment" transform="translate(0.000000, 189.000000)">
                <use fill="black" fill-opacity="1" filter="url(#filter-2)" xlink:href="#path-1"></use>
                <use fill="#FFFFFF" fill-rule="evenodd" xlink:href="#path-1"></use>
            </g>
        </g>
    </g>
</svg>