<svg xmlns="http://www.w3.org/2000/svg" width="32" height="32" viewBox="0 0 32 32">
    <defs>
        <linearGradient id="x6rro9t3ra" x1="50%" x2="50%" y1="0%" y2="100%">
            <stop offset="0%" stop-color="#B3D4E4"/>
            <stop offset="100%" stop-color="#77818F"/>
        </linearGradient>
    </defs>
    <path fill="url(#x6rro9t3ra)" d="M1084 5c8.837 0 16 7.163 16 16s-7.163 16-16 16-16-7.163-16-16 7.163-16 16-16zm0 19.216c-3.874 0-9.484 1.395-9.66 5.183 2.347 2.696 5.805 4.401 9.66 4.401 3.855 0 7.312-1.704 9.658-4.4h-.001v-.035c-.202-3.691-5.585-5.096-9.437-5.148zm0-11.28c-2.67 0-4.832 2.162-4.832 4.831 0 2.67 2.162 4.832 4.831 4.832 2.67 0 4.832-2.162 4.832-4.832 0-2.669-2.162-4.831-4.832-4.831z" transform="translate(-1068 -5)"/>
</svg>
