<?xml version="1.0" encoding="UTF-8"?>
<svg width="30px" height="24px" viewBox="0 0 30 24" version="1.1" xmlns="http://www.w3.org/2000/svg" xmlns:xlink="http://www.w3.org/1999/xlink">
    <title>tt-share</title>
    <defs>
        <path d="M258.914308,455.289207 C259.341122,455.289207 260.129765,455.815679 261.280236,456.868622 L261.280236,456.868622 L268.616373,464.077186 C269.345657,464.769387 269.7103,465.332041 269.7103,465.76515 C269.7103,466.198258 269.345657,466.719772 268.616373,467.329692 L268.616373,467.329692 L261.280236,473.821172 C260.247671,474.86561 259.459029,475.387829 258.914308,475.387829 C258.369587,475.387829 258.095031,474.796019 258.09064,473.612398 L258.09064,473.612398 L258.092198,470.691566 C257.299561,470.583811 256.384872,470.493478 255.348133,470.420566 C253.307407,470.277046 250.781367,470.645087 248.727959,471.696664 C247.651163,472.248105 246.753664,473.076642 246.017903,473.925743 C243.879074,476.394046 243.698594,475.387829 244.069062,472.164874 C244.323008,469.955618 245.574214,466.645155 247.576951,464.243108 C248.495891,463.140947 249.695572,462.297764 250.811893,461.719554 C252.774644,460.702925 255.200782,460.184659 258.090307,460.164755 L258.09064,457.225202 C258.09064,455.716304 258.274086,455.289207 258.914308,455.289207 Z" id="path-1"></path>
        <filter x="-13.6%" y="-12.4%" width="127.1%" height="134.8%" filterUnits="objectBoundingBox" id="filter-2">
            <feOffset dx="0" dy="1" in="SourceAlpha" result="shadowOffsetOuter1"></feOffset>
            <feGaussianBlur stdDeviation="1" in="shadowOffsetOuter1" result="shadowBlurOuter1"></feGaussianBlur>
            <feColorMatrix values="0 0 0 0 0   0 0 0 0 0   0 0 0 0 0  0 0 0 0.1 0" type="matrix" in="shadowBlurOuter1"></feColorMatrix>
        </filter>
    </defs>
    <g id="Page-1" stroke="none" stroke-width="1" fill="none" fill-rule="evenodd">
        <g id="basic-mode" transform="translate(-242.000000, -643.000000)">
            <g id="tt-share" transform="translate(0.000000, 189.000000)">
                <use fill="black" fill-opacity="1" filter="url(#filter-2)" xlink:href="#path-1"></use>
                <use fill="#FFFFFF" fill-rule="evenodd" xlink:href="#path-1"></use>
            </g>
        </g>
    </g>
</svg>