<?xml version="1.0" encoding="UTF-8"?>
<svg width="18px" height="14px" viewBox="0 0 18 14" version="1.1" xmlns="http://www.w3.org/2000/svg" xmlns:xlink="http://www.w3.org/1999/xlink">
    <title>tt-views</title>
    <defs>
        <path d="M250,522.683041 C250,524.43231 253.123352,527.578947 257,527.578947 C260.876648,527.578947 264,524.408669 264,522.683041 C264,520.957413 260.876648,518 257,518 C253.151075,518 250,520.933772 250,522.683041 Z M253.684211,522.789474 C253.684211,520.959158 255.169684,519.473684 257,519.473684 C258.830316,519.473684 260.315789,520.959158 260.315789,522.789474 C260.315789,524.619789 258.830316,526.105263 257,526.105263 C255.169684,526.105263 253.684211,524.619789 253.684211,522.789474 Z M255.157895,522.789474 C255.157895,521.772632 255.983158,520.947368 257,520.947368 C258.016842,520.947368 258.842105,521.772632 258.842105,522.789474 C258.842105,523.806316 258.016842,524.631579 257,524.631579 C255.983158,524.631579 255.157895,523.806316 255.157895,522.789474 Z" id="path-1"></path>
        <filter x="-25.0%" y="-26.1%" width="150.0%" height="173.1%" filterUnits="objectBoundingBox" id="filter-2">
            <feOffset dx="0" dy="1" in="SourceAlpha" result="shadowOffsetOuter1"></feOffset>
            <feGaussianBlur stdDeviation="1" in="shadowOffsetOuter1" result="shadowBlurOuter1"></feGaussianBlur>
            <feColorMatrix values="0 0 0 0 0   0 0 0 0 0   0 0 0 0 0  0 0 0 0.1 0" type="matrix" in="shadowBlurOuter1"></feColorMatrix>
        </filter>
    </defs>
    <g id="Page-1" stroke="none" stroke-width="1" fill="none" fill-rule="evenodd">
        <g id="basic-mode" transform="translate(-248.000000, -706.000000)">
            <g id="tt-views" transform="translate(0.000000, 189.000000)">
                <use fill="black" fill-opacity="1" filter="url(#filter-2)" xlink:href="#path-1"></use>
                <use fill="#FFFFFF" fill-rule="evenodd" xlink:href="#path-1"></use>
            </g>
        </g>
    </g>
</svg>